<svg xmlns="http://www.w3.org/2000/svg" xmlns:xlink="http://www.w3.org/1999/xlink" width="200" zoomAndPan="magnify" viewBox="0 0 375 374.999991" height="100" preserveAspectRatio="xMidYMid meet" version="1.0"><defs><g/></defs><g fill="#ffffff" fill-opacity="1"><g transform="translate(119.600515, 212.58378)"><g><path d="M 4.171875 0 L 4.171875 -46.75 L 23.796875 -46.75 C 27.242188 -46.75 30.457031 -46.148438 33.4375 -44.953125 C 36.414062 -43.753906 39.03125 -42.082031 41.28125 -39.9375 C 43.539062 -37.800781 45.304688 -35.3125 46.578125 -32.46875 C 47.859375 -29.632812 48.5 -26.601562 48.5 -23.375 C 48.5 -20.144531 47.859375 -17.109375 46.578125 -14.265625 C 45.304688 -11.429688 43.539062 -8.941406 41.28125 -6.796875 C 39.03125 -4.660156 36.414062 -2.992188 33.4375 -1.796875 C 30.457031 -0.597656 27.242188 0 23.796875 0 Z M 16.78125 -0.828125 L 23.796875 -0.828125 C 26.128906 -0.828125 28.03125 -1.453125 29.5 -2.703125 C 30.976562 -3.960938 32.132812 -5.660156 32.96875 -7.796875 C 33.8125 -9.941406 34.382812 -12.363281 34.6875 -15.0625 C 34.988281 -17.769531 35.140625 -20.539062 35.140625 -23.375 C 35.140625 -26.050781 34.972656 -28.722656 34.640625 -31.390625 C 34.304688 -34.054688 33.707031 -36.472656 32.84375 -38.640625 C 31.988281 -40.816406 30.835938 -42.570312 29.390625 -43.90625 C 27.941406 -45.25 26.078125 -45.921875 23.796875 -45.921875 L 16.78125 -45.921875 Z M 16.78125 -0.828125 "/></g></g></g><g fill="#ffffff" fill-opacity="1"><g transform="translate(165.426195, 212.58378)"><g><path d="M 27.046875 0.828125 C 23.597656 0.828125 20.367188 0.203125 17.359375 -1.046875 C 14.359375 -2.296875 11.703125 -4.019531 9.390625 -6.21875 C 7.078125 -8.414062 5.28125 -10.960938 4 -13.859375 C 2.726562 -16.753906 2.09375 -19.867188 2.09375 -23.203125 C 2.09375 -26.546875 2.726562 -29.664062 4 -32.5625 C 5.28125 -35.457031 7.078125 -38.003906 9.390625 -40.203125 C 11.703125 -42.398438 14.359375 -44.132812 17.359375 -45.40625 C 20.367188 -46.6875 23.597656 -47.328125 27.046875 -47.328125 C 30.609375 -47.328125 33.628906 -46.671875 36.109375 -45.359375 C 38.585938 -44.054688 40.476562 -42.40625 41.78125 -40.40625 C 43.09375 -38.40625 43.75 -36.316406 43.75 -34.140625 C 43.75 -32.359375 43.273438 -30.660156 42.328125 -29.046875 C 41.378906 -27.429688 39.929688 -26.625 37.984375 -26.625 C 36.765625 -26.625 35.597656 -27.148438 34.484375 -28.203125 C 33.367188 -29.265625 32.8125 -30.578125 32.8125 -32.140625 C 32.8125 -32.140625 33.144531 -32.375 33.8125 -32.84375 C 34.476562 -33.320312 35.203125 -34.3125 35.984375 -35.8125 C 36.316406 -36.476562 36.609375 -37.296875 36.859375 -38.265625 C 37.109375 -39.242188 37.132812 -40.257812 36.9375 -41.3125 C 36.75 -42.375 36.097656 -43.351562 34.984375 -44.25 C 33.035156 -45.695312 30.671875 -46.335938 27.890625 -46.171875 C 24.765625 -45.941406 22.3125 -44.867188 20.53125 -42.953125 C 18.75 -41.035156 17.484375 -38.40625 16.734375 -35.0625 C 15.984375 -31.71875 15.609375 -27.796875 15.609375 -23.296875 C 15.609375 -19.003906 15.96875 -15.160156 16.6875 -11.765625 C 17.414062 -8.367188 18.613281 -5.671875 20.28125 -3.671875 C 21.957031 -1.671875 24.210938 -0.53125 27.046875 -0.25 C 27.878906 -0.132812 28.878906 -0.160156 30.046875 -0.328125 C 31.222656 -0.492188 32.453125 -0.859375 33.734375 -1.421875 L 33.734375 -19.375 L 28.21875 -19.375 L 28.21875 -20.28125 L 43.40625 -20.28125 L 43.40625 -0.921875 L 36.5625 -0.921875 C 35.0625 -0.359375 33.515625 0.0703125 31.921875 0.375 C 30.335938 0.675781 28.710938 0.828125 27.046875 0.828125 Z M 27.046875 0.828125 "/></g></g></g><g fill="#ffffff" fill-opacity="1"><g transform="translate(208.580743, 212.58378)"><g><path d="M 26.96875 0.828125 C 23.519531 0.828125 20.289062 0.203125 17.28125 -1.046875 C 14.269531 -2.296875 11.625 -4.019531 9.34375 -6.21875 C 7.0625 -8.414062 5.28125 -10.960938 4 -13.859375 C 2.726562 -16.753906 2.09375 -19.867188 2.09375 -23.203125 C 2.09375 -26.546875 2.726562 -29.664062 4 -32.5625 C 5.28125 -35.457031 7.078125 -38.015625 9.390625 -40.234375 C 11.703125 -42.460938 14.375 -44.203125 17.40625 -45.453125 C 20.4375 -46.703125 23.707031 -47.328125 27.21875 -47.328125 C 29.28125 -47.328125 31.328125 -46.953125 33.359375 -46.203125 C 35.390625 -45.453125 37.25 -44.4375 38.9375 -43.15625 C 40.632812 -41.875 41.984375 -40.410156 42.984375 -38.765625 C 43.992188 -37.128906 44.5 -35.421875 44.5 -33.640625 C 44.5 -31.859375 43.910156 -30.425781 42.734375 -29.34375 C 41.566406 -28.257812 40.09375 -27.71875 38.3125 -27.71875 C 36.09375 -27.71875 34.328125 -28.410156 33.015625 -29.796875 C 31.710938 -31.191406 31.0625 -32.804688 31.0625 -34.640625 C 31.0625 -34.640625 31.296875 -34.707031 31.765625 -34.84375 C 32.234375 -34.988281 32.71875 -35.285156 33.21875 -35.734375 C 33.726562 -36.179688 34.066406 -36.875 34.234375 -37.8125 C 34.734375 -40.601562 34.285156 -42.707031 32.890625 -44.125 C 31.503906 -45.539062 29.753906 -46.25 27.640625 -46.25 C 25.296875 -46.25 23.34375 -45.59375 21.78125 -44.28125 C 20.226562 -42.976562 19.019531 -41.210938 18.15625 -38.984375 C 17.289062 -36.753906 16.675781 -34.273438 16.3125 -31.546875 C 15.957031 -28.828125 15.78125 -26.078125 15.78125 -23.296875 C 15.78125 -18.835938 16.164062 -14.867188 16.9375 -11.390625 C 17.71875 -7.910156 19 -5.179688 20.78125 -3.203125 C 22.5625 -1.234375 24.929688 -0.25 27.890625 -0.25 C 29.109375 -0.25 30.566406 -0.398438 32.265625 -0.703125 C 33.960938 -1.015625 35.753906 -1.769531 37.640625 -2.96875 C 39.535156 -4.164062 41.347656 -6.097656 43.078125 -8.765625 L 44.078125 -8.765625 C 42.742188 -6.265625 41.101562 -4.316406 39.15625 -2.921875 C 37.207031 -1.523438 35.175781 -0.550781 33.0625 0 C 30.945312 0.550781 28.941406 0.828125 27.046875 0.828125 Z M 26.96875 0.828125 "/></g></g></g><g fill="#ffffff" fill-opacity="1"><g transform="translate(124.720249, 232.591494)"><g><path d="M 0.859375 -6.578125 L 3.5625 -6.578125 C 4.550781 -6.578125 5.363281 -6.265625 6 -5.640625 C 6.644531 -5.023438 6.96875 -4.238281 6.96875 -3.28125 C 6.96875 -2.332031 6.644531 -1.546875 6 -0.921875 C 5.351562 -0.304688 4.53125 0 3.53125 0 L 0.859375 0 Z M 1.96875 -5.59375 L 1.96875 -1 L 3.59375 -1 C 4.238281 -1 4.773438 -1.210938 5.203125 -1.640625 C 5.628906 -2.066406 5.84375 -2.613281 5.84375 -3.28125 C 5.84375 -3.945312 5.625 -4.5 5.1875 -4.9375 C 4.75 -5.375 4.203125 -5.59375 3.546875 -5.59375 Z M 1.96875 -5.59375 "/></g></g></g><g fill="#ffffff" fill-opacity="1"><g transform="translate(135.729983, 232.591494)"><g><path d="M 5.5625 -5.59375 L 1.96875 -5.59375 L 1.96875 -3.8125 L 5.1875 -3.8125 L 5.1875 -2.8125 L 1.96875 -2.8125 L 1.96875 -1 L 5.6875 -1 L 5.6875 0 L 0.859375 0 L 0.859375 -6.578125 L 5.5625 -6.578125 Z M 5.5625 -5.59375 "/></g></g></g><g fill="#ffffff" fill-opacity="1"><g transform="translate(145.621296, 232.591494)"><g><path d="M 3.796875 0 L 2.65625 0 L 0.03125 -6.578125 L 1.21875 -6.578125 L 3.25 -1.234375 L 5.3125 -6.578125 L 6.46875 -6.578125 Z M 3.796875 0 "/></g></g></g><g fill="#ffffff" fill-opacity="1"><g transform="translate(155.832164, 232.591494)"><g><path d="M 5.5625 -5.59375 L 1.96875 -5.59375 L 1.96875 -3.8125 L 5.1875 -3.8125 L 5.1875 -2.8125 L 1.96875 -2.8125 L 1.96875 -1 L 5.6875 -1 L 5.6875 0 L 0.859375 0 L 0.859375 -6.578125 L 5.5625 -6.578125 Z M 5.5625 -5.59375 "/></g></g></g><g fill="#ffffff" fill-opacity="1"><g transform="translate(165.723477, 232.591494)"><g><path d="M 1.96875 -1 L 4.828125 -1 L 4.828125 0 L 0.859375 0 L 0.859375 -6.578125 L 1.96875 -6.578125 Z M 1.96875 -1 "/></g></g></g><g fill="#ffffff" fill-opacity="1"><g transform="translate(174.468182, 232.591494)"><g><path d="M 1.3125 -5.65625 C 1.988281 -6.289062 2.816406 -6.609375 3.796875 -6.609375 C 4.785156 -6.609375 5.613281 -6.289062 6.28125 -5.65625 C 6.957031 -5.019531 7.296875 -4.226562 7.296875 -3.28125 C 7.296875 -2.34375 6.957031 -1.550781 6.28125 -0.90625 C 5.613281 -0.269531 4.785156 0.046875 3.796875 0.046875 C 2.816406 0.046875 1.988281 -0.269531 1.3125 -0.90625 C 0.644531 -1.550781 0.3125 -2.34375 0.3125 -3.28125 C 0.3125 -4.226562 0.644531 -5.019531 1.3125 -5.65625 Z M 3.8125 -5.609375 C 3.164062 -5.609375 2.609375 -5.382812 2.140625 -4.9375 C 1.679688 -4.488281 1.453125 -3.9375 1.453125 -3.28125 C 1.453125 -2.632812 1.679688 -2.082031 2.140625 -1.625 C 2.609375 -1.175781 3.164062 -0.953125 3.8125 -0.953125 C 4.457031 -0.953125 5.007812 -1.175781 5.46875 -1.625 C 5.925781 -2.082031 6.15625 -2.632812 6.15625 -3.28125 C 6.15625 -3.9375 5.925781 -4.488281 5.46875 -4.9375 C 5.007812 -5.382812 4.457031 -5.609375 3.8125 -5.609375 Z M 3.8125 -5.609375 "/></g></g></g><g fill="#ffffff" fill-opacity="1"><g transform="translate(185.806862, 232.591494)"><g><path d="M 0.859375 -6.578125 L 3.484375 -6.578125 C 4.316406 -6.578125 4.957031 -6.378906 5.40625 -5.984375 C 5.863281 -5.597656 6.09375 -5.050781 6.09375 -4.34375 C 6.09375 -3.59375 5.863281 -3.007812 5.40625 -2.59375 C 4.957031 -2.1875 4.316406 -1.984375 3.484375 -1.984375 L 1.96875 -1.984375 L 1.96875 0 L 0.859375 0 Z M 1.96875 -5.59375 L 1.96875 -2.984375 L 3.4375 -2.984375 C 4.5 -2.984375 5.03125 -3.425781 5.03125 -4.3125 C 5.03125 -5.164062 4.5 -5.59375 3.4375 -5.59375 Z M 1.96875 -5.59375 "/></g></g></g><g fill="#ffffff" fill-opacity="1"><g transform="translate(195.857943, 232.591494)"><g><path d="M 7.828125 0 L 6.796875 0 L 6.796875 -4.921875 L 4.71875 -0.6875 L 3.984375 -0.6875 L 1.90625 -4.921875 L 1.90625 0 L 0.859375 0 L 0.859375 -6.578125 L 2.1875 -6.578125 L 4.359375 -2.203125 L 6.515625 -6.578125 L 7.828125 -6.578125 Z M 7.828125 0 "/></g></g></g><g fill="#ffffff" fill-opacity="1"><g transform="translate(208.277437, 232.591494)"><g><path d="M 5.5625 -5.59375 L 1.96875 -5.59375 L 1.96875 -3.8125 L 5.1875 -3.8125 L 5.1875 -2.8125 L 1.96875 -2.8125 L 1.96875 -1 L 5.6875 -1 L 5.6875 0 L 0.859375 0 L 0.859375 -6.578125 L 5.5625 -6.578125 Z M 5.5625 -5.59375 "/></g></g></g><g fill="#ffffff" fill-opacity="1"><g transform="translate(218.168748, 232.591494)"><g><path d="M 6.578125 0 L 5.484375 0 L 1.96875 -4.71875 L 1.96875 0 L 0.859375 0 L 0.859375 -6.578125 L 1.953125 -6.578125 L 5.484375 -1.859375 L 5.484375 -6.578125 L 6.578125 -6.578125 Z M 6.578125 0 "/></g></g></g><g fill="#ffffff" fill-opacity="1"><g transform="translate(229.33825, 232.591494)"><g><path d="M 5.359375 -5.59375 L 3.265625 -5.59375 L 3.265625 0 L 2.15625 0 L 2.15625 -5.59375 L 0.078125 -5.59375 L 0.078125 -6.578125 L 5.359375 -6.578125 Z M 5.359375 -5.59375 "/></g></g></g><g fill="#ffffff" fill-opacity="1"><g transform="translate(238.505882, 232.591494)"><g><path d="M 3.03125 -6.625 C 3.882812 -6.625 4.648438 -6.398438 5.328125 -5.953125 L 4.875 -4.96875 C 4.195312 -5.382812 3.550781 -5.59375 2.9375 -5.59375 C 2.613281 -5.59375 2.351562 -5.53125 2.15625 -5.40625 C 1.96875 -5.289062 1.875 -5.125 1.875 -4.90625 C 1.875 -4.6875 1.960938 -4.5 2.140625 -4.34375 C 2.316406 -4.1875 2.535156 -4.070312 2.796875 -4 C 3.054688 -3.925781 3.335938 -3.832031 3.640625 -3.71875 C 3.953125 -3.613281 4.238281 -3.5 4.5 -3.375 C 4.769531 -3.257812 4.988281 -3.070312 5.15625 -2.8125 C 5.332031 -2.550781 5.421875 -2.234375 5.421875 -1.859375 C 5.421875 -1.285156 5.1875 -0.828125 4.71875 -0.484375 C 4.257812 -0.140625 3.664062 0.03125 2.9375 0.03125 C 2.4375 0.03125 1.945312 -0.0625 1.46875 -0.25 C 1 -0.4375 0.59375 -0.6875 0.25 -1 L 0.71875 -1.96875 C 1.050781 -1.65625 1.414062 -1.414062 1.8125 -1.25 C 2.21875 -1.082031 2.597656 -1 2.953125 -1 C 3.335938 -1 3.640625 -1.070312 3.859375 -1.21875 C 4.078125 -1.363281 4.1875 -1.5625 4.1875 -1.8125 C 4.1875 -2.03125 4.097656 -2.21875 3.921875 -2.375 C 3.742188 -2.53125 3.523438 -2.644531 3.265625 -2.71875 C 3.003906 -2.789062 2.71875 -2.875 2.40625 -2.96875 C 2.101562 -3.070312 1.816406 -3.179688 1.546875 -3.296875 C 1.285156 -3.421875 1.066406 -3.609375 0.890625 -3.859375 C 0.710938 -4.117188 0.625 -4.429688 0.625 -4.796875 C 0.625 -5.359375 0.84375 -5.800781 1.28125 -6.125 C 1.726562 -6.457031 2.3125 -6.625 3.03125 -6.625 Z M 3.03125 -6.625 "/></g></g></g></svg>